PathFileType	4	(X/Y/Z)	c:\Git\powerlifing_model_clean\simulations\HC835B\Session1\HC835B_CUT_0004\marker_experimental.trc
DataRate	CameraRate	NumFrames	NumMarkers	Units	OrigDataRate	OrigDataStartFrame	OrigNumFrames
240.000000	240.000000	5	38	mm	240.000000	9	77
Frame#	Time	RPSI			LPSI			RASI			LASI			RTH1			RTH2			RTH3			RTH4			RSK1			RSK2			RSK3			RSK4			RCAL1			RCAL2			RCAL3			RST			RPT			RTN			RFMB			RSMB			RVMB			RFMH			RSMH			RVMH			RPM			LTH1			LTH2			LTH3			LTH4			LSK1			LSK2			LSK3			LSK4			LCAL1			LCAL2			LCAL3			LFMH			LVMH			
		X1	Y1	Z1	X2	Y2	Z2	X3	Y3	Z3	X4	Y4	Z4	X5	Y5	Z5	X6	Y6	Z6	X7	Y7	Z7	X8	Y8	Z8	X9	Y9	Z9	X10	Y10	Z10	X11	Y11	Z11	X12	Y12	Z12	X13	Y13	Z13	X14	Y14	Z14	X15	Y15	Z15	X16	Y16	Z16	X17	Y17	Z17	X18	Y18	Z18	X19	Y19	Z19	X20	Y20	Z20	X21	Y21	Z21	X22	Y22	Z22	X23	Y23	Z23	X24	Y24	Z24	X25	Y25	Z25	X26	Y26	Z26	X27	Y27	Z27	X28	Y28	Z28	X29	Y29	Z29	X30	Y30	Z30	X31	Y31	Z31	X32	Y32	Z32	X33	Y33	Z33	X34	Y34	Z34	X35	Y35	Z35	X36	Y36	Z36	X37	Y37	Z37	X38	Y38	Z38	

10	0.0375	253.3037719726563	1059.904052734375	128.4410247802735	154.9589385986328	1025.369873046875	155.4597320556641	261.3955993652344	1025.865966796875	-80.82698822021486	69.53256225585939	930.6676025390627	-20.4710750579834	419.2197570800782	822.6414794921877	-172.8045959472657	379.9399719238282	832.7078857421877	-217.9942932128907	414.3730468750001	763.9154663085939	-233.439682006836	370.2226867675782	767.6725463867189	-271.8353271484376	515.2962036132814	347.4770507812501	-320.9285583496094	501.348846435547	344.7763671875001	-380.8219604492188	521.8115844726564	296.5632934570313	-349.5237731933594	497.2944946289064	290.7580566406251	-404.0876464843751	531.4097290039064	129.22998046875	-322.3061218261719	497.3945617675782	91.6879119873047	-325.5129089355469	558.9376220703126	94.03469848632814	-342.5905151367188	463.6194763183595	114.9899139404297	-384.8532714843751	563.1034545898439	113.1414794921875	-403.9609680175782	458.5076904296876	139.3924560546875	-438.3234252929689	452.0689086914064	126.9982528686524	-472.5908813476564	494.0277099609376	152.3558502197266	-493.0906677246095	558.9276123046876	91.67176055908205	-452.952117919922	432.5586242675782	104.6385345458985	-522.7637329101564	479.1650695800782	121.105697631836	-552.1784667968751	549.7357788085939	87.34354400634767	-533.4663696289064	453.5513916015626	125.3278274536133	-603.7337646484376	175.0021667480469	648.6824340820314	117.7930221557617	173.4803771972657	625.2253417968751	61.898250579834	218.4540710449219	573.3834228515626	104.0944137573242	226.1406707763672	559.0158691406251	45.31851196289063	455.8080139160157	439.1963806152345	399.3832092285157	470.8976135253907	387.0240478515626	396.336151123047	486.6776733398439	411.6831970214845	437.8511047363282	513.7344360351564	364.0571899414063	425.5841674804689	580.9344482421876	457.2877197265626	539.2752075195314	572.6077880859376	447.4637145996095	584.5642089843751	622.0535278320314	467.3422851562501	560.4728393554689	708.4721069335939	265.3138427734376	532.8963012695314	623.7490844726564	262.0087890625001	600.9728393554689	
11	0.04166666666666666	248.8521575927735	1057.230590820313	109.8419265747071	150.7516174316407	1023.172973632813	137.4246826171875	257.5807800292969	1025.024291992188	-99.56894683837893	64.8087844848633	930.3005371093752	-39.45344543457032	415.5510253906251	819.1445922851565	-190.1016845703125	377.0590820312501	829.442321777344	-236.0707397460938	410.5567932128907	760.0574951171876	-250.0530395507813	367.2669067382813	763.9373779296876	-289.3602600097657	510.3619384765626	341.4450073242188	-333.7632751464844	497.280242919922	338.7875061035157	-393.8004760742189	516.9028320312501	290.4432067871094	-362.2102661132813	493.2584228515626	284.7767333984376	-417.1425170898439	525.1596679687501	123.3873672485352	-334.5823669433594	491.2481994628907	86.01973724365236	-338.4948730468751	553.0870361328126	88.18621063232423	-354.4028930664063	458.496795654297	109.2012405395508	-398.4137573242189	558.3027954101564	107.3000946044922	-415.7186584472657	453.8645935058595	133.7397003173828	-451.5868225097657	448.2994995117189	121.0058364868164	-486.3654174804689	490.7289428710939	146.4508972167969	-505.8179016113282	554.9063720703126	85.7153778076172	-464.8150939941407	429.9278564453126	98.57353973388675	-536.9613647460939	476.9208374023439	115.1990661621094	-565.3841552734376	547.2550048828126	81.43237304687501	-545.3995361328126	452.4089965820314	119.2685012817383	-617.5313720703126	169.4344177246094	645.4189453125001	94.99839019775392	166.9942474365235	622.8681030273439	38.67887496948243	212.4081420898438	569.7712402343751	79.53206634521486	218.9885406494141	556.3164672851564	20.42849731445313	447.0464477539064	445.1673583984376	371.3032836914063	462.1980590820314	393.0547180175782	370.3467712402344	477.5079040527345	419.0570068359376	411.1099243164064	504.8609619140626	371.3818664550782	400.7731018066407	570.3762817382814	469.0455627441407	511.7676086425782	562.2622680664064	460.9660644531251	557.4735717773439	611.6397094726564	480.2323303222657	532.5126953125001	698.8192749023439	277.6084594726563	512.1223754882814	614.2161865234376	276.2380371093751	579.9639892578126	
12	0.04583333333333333	244.5782165527344	1054.343383789063	91.25471496582033	146.9564514160157	1020.975158691406	119.708740234375	253.932601928711	1023.981140136719	-118.3924560546875	60.08917617797853	929.7701416015627	-58.37353515625001	411.6544189453126	815.4345703125002	-207.2857666015626	374.3233947753907	826.0527954101565	-254.1912841796876	406.9313354492189	755.8915405273439	-266.8677062988282	364.2762145996094	760.1452026367189	-306.9205322265626	505.4865722656251	335.3588867187501	-345.8764953613282	493.4531860351564	332.7117614746094	-406.0624389648439	512.3649291992189	284.3720092773438	-374.0898437500001	489.6019897460939	278.6279602050782	-429.3009033203126	519.6929321289064	117.6295928955078	-345.7174072265626	485.7913513183595	80.28816986083986	-350.1598815917969	547.9277343750001	82.39147186279298	-364.9157409667969	454.6953430175782	102.8757934570313	-410.8380737304689	554.1140136718751	101.4065170288086	-426.2490539550782	449.9644775390626	127.7028121948242	-463.9421997070314	445.2958068847657	114.4981994628907	-498.7349853515626	487.9134216308595	140.0561828613282	-517.4166870117189	551.6725463867189	79.83602905273439	-475.2866821289064	427.979705810547	91.96912384033205	-549.8981933593751	475.3871459960939	108.6772537231446	-577.3732910156251	545.5616455078126	75.31815338134767	-555.9896240234376	451.8364562988282	112.3398513793946	-630.1516113281251	164.3680114746094	642.0281372070314	71.83242034912111	160.7133026123047	620.3457641601564	15.32763481140137	206.2220764160157	566.2060546875001	54.61267089843751	211.6037292480469	553.5297851562501	-4.643156051635743	437.8782043457032	450.8391113281251	342.7255859375001	452.6129760742189	399.5876464843751	344.6598205566407	468.0864562988282	426.2872314453126	383.5909423828126	494.2661437988282	379.3747253417969	376.1893615722657	559.9926147460939	480.5263671875001	483.4830627441407	551.9440917968751	473.4867248535157	529.4624633789064	601.1979980468751	492.3992004394532	503.8152160644532	689.0400390625001	289.3985595703126	489.5136718750001	604.2191162109376	289.6626892089844	558.0342407226564	
13	0.05	240.4290313720704	1051.285278320313	72.74735260009767	141.9872589111328	1017.759704589844	99.68595123291018	250.557357788086	1022.788146972656	-137.2668609619141	55.30355072021486	929.1520996093752	-77.1958465576172	407.8147277832032	811.6160278320315	-224.5008239746094	371.6623535156251	822.3676757812502	-272.1937561035157	402.9708557128907	751.4229736328126	-283.5436096191407	361.0952758789063	755.9467163085939	-324.2949218750001	500.9918518066407	329.5313720703126	-357.3808288574219	489.776336669922	326.5459594726563	-417.7574157714845	508.2149658203126	278.2817687988282	-385.304168701172	486.1668395996095	272.3472290039063	-440.7636718750001	514.9790039062501	112.0016784667969	-355.8324890136719	481.227020263672	74.36789703369142	-360.5918579101563	543.5745849609376	76.67219543457033	-374.4373779296876	450.106658935547	96.45805358886722	-421.744110107422	550.5789184570314	95.57346343994142	-435.7503356933595	447.1692199707032	120.9480361938477	-475.234832763672	442.6675109863282	107.5847702026367	-509.9921264648439	485.4672241210939	133.2041625976563	-527.9074096679689	548.9497070312501	73.78334045410158	-484.7249755859376	426.6069335937501	84.79314422607423	-561.2988891601564	474.1046142578126	101.8021774291992	-588.0992431640626	544.3479614257814	68.93284606933595	-565.4956054687501	451.5784301757814	105.1060333251953	-641.3381347656251	159.102523803711	638.6314086914064	48.26926803588869	154.0377960205078	617.7263793945314	-8.413389205932619	199.9082031250001	562.6746826171876	29.32110977172852	203.6598510742188	551.0845336914064	-30.56902694702149	428.3373413085939	456.2056274414064	313.6866149902344	443.3155517578126	405.0108947753907	317.2722473144532	458.2551879882814	433.0627746582032	355.6289367675782	485.9707641601564	384.7061462402345	350.5385742187501	549.5892944335939	491.2966613769532	454.6353149414064	540.9280395507814	485.9888000488282	500.8220214843751	590.6242675781251	503.765350341797	474.509735107422	679.1811523437501	300.7990722656251	465.2904052734376	593.9719238281251	302.5173950195313	534.1282348632814	
14	0.05416666666666667	236.3755187988282	1048.119384765625	54.23725891113283	137.8099670410157	1014.635986328125	81.08968353271486	247.2496490478516	1021.599548339844	-156.2420654296875	50.5082244873047	928.3039550781252	-95.90743255615236	403.8869018554689	807.6369628906252	-241.7138977050782	369.0702209472657	818.5216064453127	-290.2986450195313	399.0172119140626	746.7928466796876	-300.0711059570313	357.7877197265626	751.4247436523439	-341.4916992187501	496.9788818359376	323.9445190429688	-368.4541931152344	486.2431640625001	320.3839721679688	-428.9143371582032	504.4598083496095	272.4088134765626	-395.961151123047	482.9985351562501	266.0831909179688	-451.6489868164064	511.1365356445314	106.3107452392578	-365.0517883300782	477.7698059082032	68.4052200317383	-370.1792602539063	540.2237548828126	71.06626892089845	-383.1436462402344	447.1492919921876	89.99140930175783	-431.623748779297	547.6694335937501	89.75112915039064	-444.4969177246095	444.3375244140626	113.9591674804688	-485.4570922851564	440.477996826172	100.2341461181641	-519.9464721679689	482.9683837890626	126.4300003051758	-538.1169433593751	546.8053588867189	67.72634887695314	-493.396453857422	425.1370849609376	77.24945068359376	-571.7703247070314	473.0257568359376	94.40262603759767	-597.7879638671876	543.3450317382814	62.41616821289064	-574.1049804687501	450.9067382812501	97.01198577880862	-651.5112915039064	153.7336120605469	635.1577758789064	24.41757774353028	147.337646484375	615.0932617187501	-32.37018585205079	193.3497009277344	559.0674438476564	3.783344268798829	195.8147277832032	548.3607177734376	-56.31499481201173	418.4721069335939	461.2702636718751	284.3059387207032	433.5901794433595	410.333465576172	289.5200500488282	448.2610778808595	439.499481201172	326.9694824218751	476.2709960937501	391.2461547851564	323.6434631347657	539.0304565429689	501.4868774414064	425.1259765625001	530.2509155273439	497.2902221679689	471.4867553710939	579.9807128906251	514.2723999023439	445.3653564453126	668.6030883789064	311.2631530761719	440.3020324707032	583.2537841796876	314.5954589843751	509.229461669922	
